<svg xmlns="http://www.w3.org/2000/svg" viewBox="0 0 240 40" fill="none">
  <g stroke="#c2a14d" stroke-width="2" stroke-linecap="round">
    <path d="M120 20 C 98 20, 92 8, 72 12 C 56 15, 60 28, 44 26 C 33 24, 35 16, 25 20"/>
    <path d="M120 20 C 142 20, 148 8, 168 12 C 184 15, 180 28, 196 26 C 207 24, 205 16, 215 20"/>
  </g>
  <g fill="#7b1e26">
    <path d="M84 13 q -7 -8 -15 -5 q 5 9 15 5 z"/>
    <path d="M156 13 q 7 -8 15 -5 q -5 9 -15 5 z"/>
  </g>
  <g fill="#c2a14d">
    <circle cx="23" cy="20" r="2.5"/>
    <circle cx="217" cy="20" r="2.5"/>
  </g>
  <!-- center rose -->
  <circle cx="120" cy="20" r="7.5" fill="#7b1e26"/>
  <path d="M120 20 m -4.5 0 a 4.5 4.5 0 1 0 9 0 a 2.8 2.8 0 1 1 -5.6 0" fill="none" stroke="#e7dcc6" stroke-width="1.3" stroke-linecap="round"/>
  <circle cx="120" cy="20" r="1.8" fill="#e7dcc6"/>
</svg>
